<?xml version="1.0" encoding="UTF-8"?>
<svg width="64" height="64" viewBox="0 0 64 64" xmlns="http://www.w3.org/2000/svg">
  <!-- 定义马卡龙色系渐变 -->
  <defs>
    <linearGradient id="macaron" x1="0%" y1="0%" x2="100%" y2="100%">
      <stop offset="0%" stop-color="#FFB6C1"/>
      <stop offset="30%" stop-color="#DDA0DD"/>
      <stop offset="60%" stop-color="#98FB98"/>
      <stop offset="100%" stop-color="#87CEEB"/>
    </linearGradient>
  </defs>
  
  <!-- 圆角矩形背景 -->
  <rect x="8" y="8" width="48" height="48" rx="12" ry="12" fill="url(#macaron)"/>
  
  <!-- R与鱼融合的抽象设计 -->
  <!-- R的主体竖线（同时是鱼的身体轮廓） -->
  <path d="M18 16 L18 48 L24 48 L24 32 L30 32 L30 26 L24 26 L24 22 L32 22 C36 22 38 24 38 28 C38 30 37 31 35 32 L40 48 L46 48 L40 30 C42 28 44 26 44 22 C44 18 40 16 32 16 Z" fill="#FFFFFF"/>
  
  <!-- 鱼尾部分（R的延伸，形成鱼尾效果） -->
  <path d="M35 32 L42 28 L46 32 L42 36 Z" fill="#FFFFFF" opacity="0.8"/>
  
  <!-- 抽象的鱼眼（融入R的设计中） -->
  <circle cx="28" cy="20" r="1.5" fill="#FFFFFF" opacity="0.9"/>
  
  <!-- 流动线条（暗示水流和动感） -->
  <path d="M20 40 Q28 36 36 40 Q44 44 50 40" fill="none" stroke="#FFFFFF" stroke-width="1.5" opacity="0.5"/>
</svg>